<?xml version="1.0" encoding="UTF-8"?>
<svg id="Layer_2" data-name="Layer 2" xmlns="http://www.w3.org/2000/svg" viewBox="0 0 1500 1500">
  <defs>
    <style>
      .cls-1 {
        fill: #ed0081;
      }

      .cls-2 {
        fill: #fdd900;
      }

      .cls-3 {
        fill: #31b4e8;
      }

      .cls-4 {
        fill: #000204;
      }
    </style>
  </defs>
  <path class="cls-4" d="M562.71,1041.71s-55.09-373.36,225.35-660.48c280.44-287.12,578-215.89,659.58-189.19l-104.82,130.2s-288.41-49.89-519.89,159.32c-231.47,209.22-260.22,560.14-260.22,560.14Z"/>
  <path class="cls-2" d="M566.89,1193.9s-210.35-313.35-80.71-693.18C615.82,120.88,915.08,57.16,1000.21,46.18l-38.61,162.63s-281.82,79.04-400.78,367.48c-118.95,288.45,6.06,617.6,6.06,617.6Z"/>
  <path class="cls-1" d="M715.27,1381.6s-344.78-153.49-436.99-544.11c-92.21-390.61,127.33-603.72,193.59-658.3l53.79,158.26s-196.63,216.81-143.97,524.35c52.66,307.54,333.58,519.8,333.58,519.8Z"/>
  <path class="cls-3" d="M870.51,1453.38s-376.64,24.01-639.57-279.22C-32,870.93,63.59,580.28,96.96,501.19l121.09,115.23s-73.58,283.3,115.77,531.29c189.35,247.99,536.69,305.66,536.69,305.66Z"/>
</svg>